<svg version="1.0" xmlns="http://www.w3.org/2000/svg"
 width="700.000000pt" height="687.000000pt" viewBox="0 0 700.000000 687.000000"
 preserveAspectRatio="xMidYMid meet">
<metadata>
Created by potrace 1.16, written by Peter Selinger 2001-2019
</metadata>
<g transform="translate(0.000000,687.000000) scale(0.100000,-0.100000)"
fill="#000000" stroke="none">
<path d="M3250 6639 l0 -231 23 6 c12 3 30 6 39 6 16 0 17 9 11 95 l-6 95 26
0 c22 0 38 -16 93 -95 l67 -95 44 0 c23 0 43 3 43 6 0 3 -31 48 -70 100 -38
52 -70 96 -70 99 0 3 14 18 31 33 55 50 57 149 2 192 -22 17 -40 20 -129 20
l-104 0 0 -231z m180 156 c42 -38 15 -107 -48 -125 -62 -17 -62 -18 -62 71 l0
82 45 -6 c25 -2 55 -13 65 -22z"/>
<path d="M3670 6845 c0 -13 -5 -92 -11 -174 -10 -140 -10 -152 9 -193 23 -52
66 -77 145 -84 38 -4 61 0 86 13 70 37 84 81 97 316 l6 127 -30 0 c-29 0 -30
-3 -36 -47 -3 -27 -8 -93 -12 -148 -3 -55 -10 -117 -15 -137 -18 -70 -91 -90
-150 -41 l-32 27 7 160 c4 89 9 171 12 183 6 21 3 23 -35 23 -37 0 -41 -2 -41
-25z"/>
<path d="M4147 6743 c-46 -209 -79 -374 -76 -377 2 -2 18 -7 36 -10 l31 -7 17
78 c22 104 22 103 43 103 27 0 34 -11 77 -122 38 -96 38 -97 77 -103 22 -4 52
-13 66 -21 38 -20 41 -19 93 32 l46 45 86 -33 87 -32 0 -67 c0 -61 2 -67 25
-77 14 -7 30 -12 35 -12 6 0 10 96 10 244 l0 244 -31 12 c-20 9 -36 10 -44 4
-7 -5 -82 -84 -166 -176 -84 -92 -155 -166 -158 -163 -4 5 -101 226 -101 232
0 2 7 3 15 3 48 0 95 64 95 130 0 48 -21 84 -58 99 -30 12 -156 41 -177 41 -8
0 -19 -26 -28 -67z m160 -29 c30 -19 37 -48 18 -84 -19 -37 -55 -53 -102 -44
-25 5 -32 11 -29 23 3 9 10 42 16 74 l12 58 31 -6 c18 -4 42 -13 54 -21z"/>
<path d="M2668 6783 c-16 -2 -28 -10 -28 -17 0 -21 88 -427 94 -433 5 -6 75 6
198 34 66 15 68 16 62 42 -4 14 -7 27 -8 28 -1 1 -43 -8 -94 -19 -51 -11 -95
-18 -97 -16 -3 3 -85 372 -85 384 0 2 -3 3 -7 3 -5 -1 -20 -4 -35 -6z"/>
<path d="M2333 6680 c-29 -12 -30 -17 -44 -277 -7 -123 -14 -223 -17 -223 -3
0 -53 26 -113 57 -103 54 -107 57 -93 77 8 12 14 44 14 74 0 48 -4 58 -34 88
-47 47 -88 46 -191 -7 -44 -22 -81 -42 -83 -44 -7 -6 199 -405 209 -405 9 0
47 17 57 25 2 2 -15 39 -37 84 -23 44 -41 83 -41 85 0 3 9 10 20 16 17 9 37 2
120 -45 l99 -56 70 37 70 36 6 57 c4 31 8 60 9 66 1 5 40 22 87 36 l84 26 39
-50 c35 -44 42 -48 70 -43 17 4 34 10 39 15 9 9 -291 381 -307 380 -6 0 -21
-4 -33 -9z m-339 -262 c23 -33 20 -81 -6 -104 -58 -50 -54 -51 -92 24 l-35 69
32 16 c46 23 83 21 101 -5z"/>
<path d="M4950 6320 c-55 -110 -100 -203 -100 -208 0 -4 53 -34 117 -66 109
-54 118 -57 130 -40 19 27 17 32 -29 55 -24 12 -62 33 -85 46 l-42 25 89 177
89 178 -35 16 -34 17 -100 -200z"/>
<path d="M1550 6289 c-47 -33 -91 -66 -99 -74 -12 -12 5 -41 114 -197 70 -101
129 -185 131 -187 3 -4 224 150 224 156 0 12 -22 43 -30 43 -5 0 -44 -25 -87
-55 l-76 -54 -44 61 -43 62 53 37 c28 21 55 39 60 39 13 0 8 37 -8 50 -11 9
-26 3 -77 -33 l-63 -45 -37 54 -37 54 67 47 c37 25 71 50 75 54 11 9 -10 49
-26 49 -7 -1 -50 -28 -97 -61z"/>
<path d="M3471 6123 c-50 -114 -96 -256 -116 -363 -11 -52 -22 -99 -26 -104
-4 -5 -56 -15 -115 -23 -372 -48 -746 -200 -1048 -425 l-79 -60 -55 18 c-137
43 -263 -50 -262 -193 1 -32 7 -69 14 -82 12 -22 9 -30 -59 -117 -176 -225
-313 -498 -390 -779 -28 -102 -41 -172 -71 -370 -3 -25 -13 -34 -64 -58 -46
-21 -65 -37 -84 -70 -46 -79 -42 -165 11 -235 24 -32 89 -72 117 -72 15 0 20
-18 31 -105 25 -208 111 -490 210 -690 75 -152 193 -335 294 -454 39 -46 71
-84 71 -86 0 -1 -7 -19 -15 -38 -21 -50 -19 -120 4 -165 52 -101 161 -138 269
-92 l47 20 111 -72 c356 -235 738 -357 1176 -375 l158 -6 2 194 3 194 105 17
c168 27 146 37 245 -117 48 -74 91 -135 95 -135 10 0 510 207 518 215 3 3 -5
76 -19 161 l-26 155 136 116 c75 64 146 125 158 136 21 19 22 19 165 -37 79
-30 148 -56 155 -58 6 -2 80 97 163 220 l151 222 -92 108 c-51 59 -101 116
-110 127 -17 19 -16 27 43 210 33 105 62 192 64 194 2 2 74 18 161 35 l158 32
3 276 2 276 -47 10 c-27 6 -100 20 -163 32 l-115 22 -62 196 -62 196 87 100
c48 55 97 113 110 127 l22 27 -141 209 c-77 114 -147 214 -154 222 -12 12 -35
6 -164 -44 -132 -51 -153 -56 -168 -44 -10 8 -81 68 -159 134 l-140 121 23
139 c12 77 23 149 23 161 0 17 -36 35 -247 122 -137 56 -255 104 -264 107 -12
4 -38 -30 -105 -134 -72 -114 -93 -139 -109 -136 -11 2 -46 7 -77 10 l-58 6 0
114 c0 211 -44 460 -115 646 -47 123 -76 189 -84 189 -3 0 -21 -35 -40 -77z
m-156 -795 c0 -186 14 -406 31 -489 5 -26 3 -27 -46 -34 -28 -4 -74 -13 -102
-21 -46 -12 -54 -11 -70 3 -31 28 -136 197 -211 339 -40 76 -76 138 -81 138
-13 1 -62 -127 -83 -214 -25 -106 -23 -253 5 -353 12 -42 22 -79 22 -82 0 -2
-12 -11 -27 -19 -16 -8 -67 -43 -114 -79 l-86 -65 -54 14 c-95 25 -193 -17
-233 -100 -23 -48 -21 -142 4 -189 l20 -37 -49 -92 c-67 -126 -110 -254 -147
-435 -3 -16 -16 -25 -45 -33 -23 -7 -56 -27 -79 -50 -108 -108 -60 -293 86
-336 l37 -10 19 -91 c32 -159 100 -329 186 -463 38 -60 38 -57 23 -115 -34
-134 91 -265 229 -239 43 9 47 7 109 -38 193 -144 432 -240 673 -270 l98 -12
0 -363 0 -363 -42 5 c-246 27 -384 55 -554 111 -195 65 -396 164 -550 273
l-71 50 5 49 c8 90 -35 168 -113 203 -44 20 -110 24 -149 9 -24 -9 -30 -3
-101 83 -241 293 -399 630 -463 987 -36 200 -36 195 9 224 52 35 82 96 82 167
-1 31 -8 69 -16 86 -15 29 -74 87 -95 94 -8 3 -8 29 -1 84 40 324 166 662 347
930 113 168 154 215 175 203 24 -13 109 -12 151 2 19 6 50 29 70 50 46 51 62
109 48 175 -12 59 -15 56 144 164 194 131 391 224 609 287 123 36 302 72 365
73 l35 1 0 -212z m952 -39 c98 -39 179 -72 181 -73 1 -2 -12 -67 -29 -146 -17
-78 -27 -146 -22 -150 80 -72 407 -340 415 -340 6 0 69 25 141 55 72 31 134
52 138 48 3 -5 53 -77 109 -162 l102 -154 -110 -110 -110 -110 85 -245 c46
-136 86 -248 89 -251 2 -2 68 -16 147 -30 l142 -26 0 -200 0 -199 -144 -27
c-79 -16 -145 -30 -147 -31 -2 -2 -41 -115 -87 -250 l-83 -246 107 -114 108
-115 -104 -153 c-58 -84 -106 -155 -109 -157 -2 -2 -64 21 -137 52 -115 48
-137 54 -154 44 -11 -7 -105 -84 -210 -172 -104 -88 -192 -162 -194 -163 -2
-2 11 -67 28 -145 17 -78 30 -144 28 -146 -8 -7 -351 -143 -362 -143 -5 0 -44
55 -85 121 -41 66 -77 122 -81 124 -3 3 -71 -7 -150 -20 -79 -14 -152 -25
-161 -25 -16 0 -18 14 -18 164 l0 165 48 6 c358 45 627 166 859 389 180 171
301 361 377 588 33 97 59 219 49 229 -5 4 -189 40 -410 80 l-402 73 6 65 c3
36 6 66 7 67 1 1 185 33 409 72 225 38 411 72 414 76 17 17 -68 278 -134 411
-104 206 -287 422 -469 550 -80 57 -95 72 -90 89 57 197 44 356 -45 564 l-20
46 -65 -124 c-128 -244 -208 -363 -239 -355 -11 3 -65 13 -121 22 l-100 17 7
55 c5 31 12 100 18 155 5 54 11 100 13 101 2 2 44 -3 93 -11 50 -7 98 -14 108
-14 10 0 34 26 60 68 24 37 60 93 80 125 20 31 39 57 42 57 3 0 85 -32 182
-71z m-509 -585 c23 -4 44 -10 47 -14 5 -8 -67 -70 -135 -117 l-45 -31 15 90
14 89 31 -5 c16 -3 49 -8 73 -12z m-879 -236 c25 -33 81 -90 125 -125 90 -71
267 -163 364 -189 l63 -18 -3 -69 -3 -70 -58 -14 c-171 -38 -342 -181 -408
-340 -20 -47 -26 -52 -67 -64 -133 -37 -185 -212 -95 -319 28 -33 91 -70 121
-70 13 0 28 -21 53 -72 70 -150 239 -283 402 -319 l57 -12 0 -364 0 -364 -57
6 c-83 9 -248 49 -328 80 -91 34 -222 104 -302 161 -62 44 -63 45 -49 72 50
99 11 223 -86 273 -39 20 -104 22 -183 8 -40 -8 -148 210 -200 403 -32 120
-32 138 3 162 76 51 106 170 63 253 -19 38 -73 93 -91 93 -12 0 18 142 52 244
16 50 50 130 74 177 l45 86 67 0 c77 -1 114 15 160 67 49 56 63 128 38 198
-13 35 -12 38 13 61 40 37 165 127 176 126 6 0 30 -28 54 -61z m1379 30 c199
-134 346 -305 453 -523 51 -104 116 -291 106 -302 -5 -5 -677 -123 -699 -123
-10 0 -18 7 -18 16 0 8 -15 48 -33 87 -78 167 -230 291 -407 331 l-55 13 -3
70 -3 71 38 12 c71 23 278 128 348 178 39 27 102 83 140 125 39 41 74 76 78
76 5 1 29 -13 55 -31z m-574 -622 c128 -46 229 -133 287 -248 155 -308 -13
-660 -353 -742 l-28 -6 0 173 c0 174 0 174 24 185 35 16 73 70 86 123 18 70 0
123 -61 182 l-49 47 0 155 c0 129 2 155 15 155 8 0 43 -11 79 -24z m-254 -140
c0 -145 -1 -155 -20 -161 -33 -10 -79 -76 -91 -129 -17 -76 1 -129 62 -189
l49 -47 0 -161 0 -161 -25 6 c-152 38 -274 135 -343 272 l-21 41 26 14 c15 8
39 34 55 58 23 36 28 56 28 104 0 72 -20 117 -72 162 l-40 34 27 49 c58 108
168 203 278 243 92 33 87 40 87 -135z m1037 -568 l352 -63 -6 -25 c-52 -217
-172 -434 -331 -601 -223 -235 -501 -374 -829 -414 l-53 -7 0 364 0 364 56 12
c185 39 385 217 435 390 7 23 15 42 18 42 3 1 164 -27 358 -62z"/>
<path d="M5435 6015 c-75 -96 -134 -179 -131 -183 3 -5 39 -34 80 -66 83 -63
152 -90 206 -81 160 30 263 223 183 343 -28 40 -171 162 -191 162 -6 0 -72
-79 -147 -175z m243 23 c56 -58 63 -97 28 -165 -42 -85 -123 -136 -189 -119
-12 3 -45 22 -74 43 l-51 39 28 34 c206 264 181 247 258 168z"/>
<path d="M1235 6031 c-22 -10 -75 -48 -118 -84 l-77 -66 136 -163 c75 -90 143
-169 150 -177 10 -11 24 -3 87 50 103 89 127 127 127 204 0 75 -24 130 -82
187 -66 67 -147 84 -223 49z m108 -65 c46 -19 112 -97 127 -149 16 -58 -2
-101 -62 -150 -25 -21 -48 -37 -51 -37 -4 0 -54 57 -113 127 l-106 127 33 29
c35 30 104 66 127 67 7 0 27 -6 45 -14z"/>
<path d="M5881 5764 c-127 -55 -202 -201 -158 -307 67 -159 253 -181 384 -46
73 76 92 162 54 244 -22 47 -74 99 -114 114 -40 15 -126 13 -166 -5z m153 -58
c35 -14 69 -55 79 -94 21 -86 -111 -222 -217 -222 -31 0 -46 7 -77 39 -33 32
-39 45 -39 80 0 51 17 85 67 133 36 35 113 77 141 78 7 0 28 -6 46 -14z"/>
<path d="M860 5680 c-41 -48 -76 -94 -77 -102 -2 -14 317 -293 335 -293 17 0
183 195 176 206 -3 5 -13 13 -24 19 -15 8 -28 -2 -81 -64 l-64 -74 -48 41
c-27 22 -51 46 -54 54 -3 7 16 36 41 64 25 28 46 55 46 60 0 4 -10 14 -22 20
-20 11 -27 7 -73 -45 l-50 -57 -49 43 -49 44 61 69 c57 65 60 71 45 87 -9 10
-21 18 -27 17 -6 0 -45 -40 -86 -89z"/>
<path d="M639 5393 c-40 -53 -72 -103 -73 -111 -1 -8 78 -73 177 -144 187
-137 190 -138 217 -87 8 14 -4 27 -70 75 -44 31 -80 59 -80 61 0 2 17 27 38
56 55 74 54 73 27 91 -24 16 -25 15 -70 -49 l-46 -64 -50 35 c-27 20 -51 39
-54 43 -2 4 18 39 45 77 28 37 50 73 50 79 0 6 -9 16 -20 23 -18 11 -26 4 -91
-85z"/>
<path d="M6275 5130 c-104 -60 -194 -111 -199 -113 -9 -3 23 -67 34 -67 3 0
39 20 80 44 54 32 78 41 88 34 19 -16 15 -31 -33 -136 l-46 -97 17 -37 c9 -21
20 -38 24 -38 4 0 17 21 28 48 11 26 34 77 51 113 l30 67 43 -16 c38 -13 49
-14 87 -1 92 29 108 102 48 210 -63 113 -37 114 -252 -11z m200 -20 c16 -31
19 -68 7 -86 -10 -16 -48 -34 -71 -34 -21 0 -81 54 -81 73 0 13 96 75 117 76
7 1 19 -12 28 -29z"/>
<path d="M320 4845 c-29 -64 -51 -117 -49 -119 9 -8 398 -186 407 -186 7 0 91
167 119 236 2 7 -9 16 -24 22 -29 10 -29 10 -69 -79 -21 -49 -43 -89 -47 -89
-10 0 -127 59 -127 64 0 2 14 35 30 72 24 52 28 69 18 76 -31 19 -46 7 -74
-57 -16 -36 -31 -65 -35 -65 -4 0 -32 11 -62 25 l-55 26 38 82 c36 75 38 83
23 95 -9 6 -22 12 -28 12 -6 0 -35 -52 -65 -115z"/>
<path d="M6468 4767 c-108 -51 -200 -95 -203 -99 -4 -3 1 -20 9 -37 l16 -30
73 33 c243 112 323 150 331 157 9 8 -11 69 -23 68 -3 0 -95 -41 -203 -92z"/>
<path d="M6537 4603 c-105 -35 -176 -135 -164 -228 23 -167 174 -239 340 -162
92 42 137 105 137 190 0 167 -141 257 -313 200z m178 -67 c19 -8 44 -30 55
-48 63 -104 -31 -217 -190 -226 -60 -4 -69 -1 -97 22 -103 87 -41 216 122 256
47 12 73 11 110 -4z"/>
<path d="M250 4518 c-57 -29 -84 -70 -115 -172 -44 -147 -68 -122 182 -193
120 -34 219 -60 221 -58 2 2 15 41 28 87 53 178 22 270 -110 329 -75 33 -151
36 -206 7z m208 -95 c29 -17 54 -43 65 -65 17 -35 17 -40 1 -105 -9 -37 -18
-69 -19 -71 -2 -2 -165 42 -309 85 -14 4 -17 11 -12 35 12 59 45 117 78 138
47 30 132 22 196 -17z"/>
<path d="M270 3984 c-118 -29 -218 -53 -221 -53 -4 -1 -9 -17 -11 -37 l-4 -35
210 -119 c115 -66 213 -117 218 -114 4 3 8 18 8 34 0 24 -8 33 -55 60 -62 35
-62 35 -41 150 l11 65 62 13 c62 14 72 24 73 75 0 23 -3 23 -250 -39z"/>
<path d="M6710 3869 c-102 -10 -187 -18 -189 -18 -8 -2 10 -187 22 -226 15
-51 71 -107 123 -123 57 -17 141 -15 197 4 56 19 102 68 117 126 11 39 7 159
-6 231 -7 32 2 32 -264 6z m216 -104 c19 -127 -47 -198 -181 -197 -56 0 -98
17 -128 50 -19 21 -45 147 -33 160 7 7 207 28 293 31 l42 1 7 -45z"/>
<path d="M127 3586 c-22 -8 -50 -25 -64 -38 -47 -44 -56 -75 -61 -204 l-4
-121 221 -8 c122 -4 225 -5 228 -1 12 12 15 192 4 233 -15 53 -52 98 -105 125
-52 27 -165 34 -219 14z m174 -77 c21 -7 51 -25 66 -41 25 -26 28 -38 32 -110
l3 -81 -53 6 c-30 4 -107 7 -173 7 l-119 0 5 74 c5 82 20 111 71 138 37 20
113 23 168 7z"/>
<path d="M6547 3315 c-4 -43 -7 -107 -7 -142 l0 -63 30 0 30 0 0 100 0 100 78
0 77 0 -3 -80 -4 -80 31 0 31 0 0 80 0 80 70 0 70 0 -6 -95 -7 -95 32 0 31 0
0 130 0 130 -164 0 c-89 0 -190 3 -223 6 l-60 7 -6 -78z"/>
<path d="M220 3071 l-205 -26 3 -35 c2 -19 5 -36 6 -37 3 -3 445 53 449 57 3
3 2 20 0 38 -6 38 18 38 -253 3z"/>
<path d="M6429 2963 c-28 -74 0 -161 60 -185 22 -8 444 -88 447 -84 1 0 4 17
8 37 l6 35 -212 38 c-117 20 -224 44 -236 52 -24 16 -26 42 -7 100 6 18 2 22
-25 26 -26 4 -33 1 -41 -19z"/>
<path d="M312 2905 c-20 -16 -44 -58 -68 -116 -41 -99 -64 -121 -103 -99 -31
16 -43 56 -36 115 l7 52 -31 -5 c-37 -5 -47 -30 -36 -99 9 -64 29 -100 68
-123 38 -24 66 -25 112 -6 36 15 58 50 96 151 23 63 56 91 94 81 46 -12 67
-88 46 -164 -10 -35 -3 -39 48 -25 23 6 23 9 19 82 -3 44 -12 90 -22 109 -37
71 -137 95 -194 47z"/>
<path d="M6465 2688 c-8 -34 -1 -43 69 -94 l28 -20 -23 -85 c-12 -46 -23 -85
-25 -87 -1 -2 -30 -6 -65 -10 -62 -7 -64 -8 -75 -42 -7 -19 -8 -36 -4 -38 14
-5 475 49 481 56 4 4 9 19 13 35 6 26 -3 34 -189 172 -107 80 -197 145 -199
145 -2 0 -8 -14 -11 -32z"/>
<path d="M457 2540 l-73 -99 -21 21 c-26 25 -101 35 -142 18 -40 -16 -63 -54
-63 -101 1 -47 42 -180 58 -186 7 -2 105 26 219 62 l207 67 -6 31 c-3 17 -9
33 -11 36 -3 3 -44 -8 -92 -23 -70 -23 -87 -26 -94 -15 -14 23 -11 29 61 124
69 90 69 91 58 128 -6 20 -15 37 -20 37 -4 0 -41 -45 -81 -100z m-133 -130
c14 -5 34 -27 46 -50 23 -45 28 -40 -67 -69 l-61 -18 -11 37 c-16 54 -14 66
15 89 30 24 42 25 78 11z"/>
<path d="M628 2250 c-15 -9 -13 -19 23 -101 23 -50 39 -92 37 -93 -14 -10
-130 -57 -133 -54 -2 2 -17 34 -34 71 -29 65 -32 67 -53 56 -13 -6 -24 -13
-26 -14 -2 -2 11 -33 27 -70 17 -38 30 -69 28 -71 -12 -13 -113 -52 -118 -46
-4 4 -21 41 -39 82 -18 41 -34 76 -35 78 -3 3 -42 -14 -52 -23 -3 -2 96 -227
103 -234 6 -7 406 173 411 185 6 16 -97 244 -111 244 -6 0 -19 -5 -28 -10z"/>
<path d="M6319 2234 c-5 -15 -8 -28 -6 -31 2 -2 69 -32 148 -68 79 -35 137
-66 129 -69 -8 -2 -95 -17 -193 -32 -176 -27 -178 -28 -193 -57 -9 -16 -12
-32 -7 -36 4 -4 98 -47 207 -96 189 -84 200 -87 212 -70 12 16 19 45 12 45 -2
0 -67 29 -146 64 -94 42 -137 66 -125 69 10 3 98 18 195 33 l177 28 11 30 c6
16 7 33 3 37 -10 9 -396 179 -406 179 -4 0 -12 -12 -18 -26z"/>
<path d="M6060 1735 c-40 -64 -71 -117 -69 -119 2 -2 14 -8 26 -15 20 -10 25
-7 56 41 18 29 42 67 52 85 l18 31 56 -35 c31 -19 59 -38 63 -42 4 -3 -11 -35
-33 -71 -38 -60 -40 -65 -23 -77 29 -21 38 -16 72 42 18 30 37 57 43 60 8 6
109 -51 109 -61 0 -2 -20 -35 -45 -74 -25 -39 -45 -75 -45 -80 0 -14 41 -33
50 -23 14 15 130 204 130 211 -1 6 -357 231 -380 240 -4 2 -41 -49 -80 -113z"/>
<path d="M637 1780 c-120 -26 -220 -50 -223 -53 -3 -3 2 -16 11 -30 l16 -25
162 34 c89 19 172 36 185 39 18 5 -2 -27 -92 -146 l-116 -151 17 -29 c10 -16
20 -29 24 -29 3 0 72 86 153 191 l146 191 -17 29 c-10 16 -24 28 -33 28 -8 -1
-113 -23 -233 -49z"/>
<path d="M870 1445 c-96 -75 -176 -142 -178 -148 -1 -7 8 -22 20 -34 l23 -21
160 125 c88 68 169 133 180 144 19 19 19 19 -6 44 l-25 26 -174 -136z"/>
<path d="M5932 1547 c-12 -13 -22 -27 -22 -33 1 -5 80 -71 178 -146 l177 -138
23 26 c12 14 22 28 22 32 -1 6 -167 138 -314 249 l-43 33 -21 -23z"/>
<path d="M981 1279 c-89 -83 -161 -154 -161 -158 0 -4 9 -16 20 -26 23 -21 10
-31 168 118 46 44 86 77 88 74 3 -2 -16 -87 -41 -187 l-46 -183 25 -25 25 -25
107 99 c58 54 134 124 168 155 61 56 61 57 42 78 -11 11 -23 21 -28 21 -6 0
-60 -47 -121 -104 -61 -58 -113 -103 -115 -102 -1 2 18 86 43 186 43 170 45
184 30 206 -8 13 -22 24 -29 24 -8 0 -87 -68 -175 -151z"/>
<path d="M5812 1398 l-22 -22 67 -68 c63 -64 66 -69 51 -85 -16 -16 -24 -15
-130 1 l-113 17 -30 -33 -29 -33 119 -17 c66 -9 123 -17 128 -17 4 -1 7 -23 7
-50 0 -87 67 -148 145 -134 32 6 166 133 164 155 -1 14 -298 294 -320 303 -8
3 -24 -5 -37 -17z m267 -296 c7 -3 -41 -52 -62 -64 -29 -15 -65 -1 -83 33 -18
36 -13 64 17 103 l22 28 51 -49 c28 -26 53 -49 55 -51z"/>
<path d="M5480 1064 c-42 -18 -96 -68 -117 -109 -24 -45 -21 -131 6 -185 29
-57 85 -116 133 -141 59 -30 143 -26 201 10 70 45 102 100 102 175 -2 170
-184 311 -325 250z m135 -79 c24 -13 59 -48 80 -80 32 -45 39 -64 39 -106 1
-46 -2 -54 -36 -84 -40 -37 -75 -50 -111 -41 -64 16 -148 105 -168 178 -14 54
5 105 50 135 44 30 94 29 146 -2z"/>
<path d="M1400 1024 c-22 -20 -82 -88 -132 -152 l-92 -115 24 -19 c12 -10 26
-17 30 -16 4 2 49 55 100 118 51 63 104 125 119 137 38 33 76 30 117 -11 58
-58 50 -77 -103 -263 -72 -88 -83 -106 -72 -119 36 -43 42 -39 146 89 122 149
137 176 130 234 -6 53 -26 85 -79 123 -33 24 -51 30 -94 30 -48 0 -58 -4 -94
-36z"/>
<path d="M2480 405 c0 -229 8 -258 83 -297 58 -31 176 -32 226 -3 73 43 76 52
79 286 l3 209 -50 0 -51 0 0 -195 c0 -195 0 -196 -25 -220 -32 -33 -84 -33
-122 -1 l-28 24 -3 196 -3 196 -55 0 -54 0 0 -195z"/>
<path d="M2980 345 l0 -255 60 0 60 0 0 105 0 105 80 0 80 0 0 40 0 40 -80 0
-80 0 0 70 0 70 100 0 100 0 0 40 0 40 -160 0 -160 0 0 -255z"/>
<path d="M3380 346 l0 -256 50 0 50 0 0 105 c0 103 0 105 23 105 19 0 35 -20
87 -105 l63 -105 69 0 c81 0 83 -12 -21 135 l-71 100 31 24 c58 45 75 129 39
188 -30 49 -53 57 -192 61 l-128 4 0 -256z m205 149 c29 -28 30 -36 10 -74
-14 -28 -58 -51 -96 -51 -17 0 -19 9 -19 75 l0 75 40 0 c30 0 47 -7 65 -25z"/>
<path d="M3850 345 l0 -255 50 0 50 0 0 105 c0 104 0 105 24 105 19 0 35 -19
87 -105 l64 -105 52 0 52 0 3 -43 3 -42 80 -3 c71 -2 85 0 115 20 54 36 59 64
59 336 l1 242 -55 0 -55 0 0 -229 c0 -127 -4 -241 -10 -256 -5 -14 -19 -29
-31 -33 -25 -10 -79 -3 -79 9 0 4 -35 58 -79 120 l-78 112 32 29 c43 37 59 78
52 134 -10 89 -60 113 -234 114 l-103 0 0 -255z m206 152 c22 -20 25 -28 19
-55 -8 -38 -38 -60 -89 -69 l-36 -6 0 77 0 76 39 0 c27 0 48 -7 67 -23z"/>
</g>
</svg>
